<?xml version="1.0" encoding="utf-8"?>
<!-- Generator: Adobe Illustrator 16.0.4, SVG Export Plug-In . SVG Version: 6.00 Build 0)  -->
<!DOCTYPE svg PUBLIC "-//W3C//DTD SVG 1.1//EN" "http://www.w3.org/Graphics/SVG/1.1/DTD/svg11.dtd">
<svg version="1.1" id="Layer_1" xmlns="http://www.w3.org/2000/svg" xmlns:xlink="http://www.w3.org/1999/xlink" x="0px" y="0px"
	 width="100px" height="100px" viewBox="0 0 100 100" enable-background="new 0 0 100 100" xml:space="preserve">
<path fill="#8E2800" d="M36.471,64.982c-0.269-0.019-0.539-0.033-0.808-0.059c-1.506-0.141-2.888-0.632-4.115-1.52
	c-2.116-1.533-3.47-3.57-4.009-6.135c-0.202-0.965-0.258-1.938-0.196-2.918c0.069-1.152,0.299-2.27,0.665-3.361
	c0.584-1.744,1.466-3.327,2.582-4.785c0.841-1.099,1.792-2.095,2.841-2.998c0.981-0.846,1.873-1.78,2.708-2.769
	c1.05-1.247,2.001-2.568,2.939-3.898c0.83-1.176,1.645-2.36,2.526-3.497c0.662-0.858,1.361-1.684,2.139-2.438
	c0.974-0.943,2.049-1.742,3.315-2.259c0.951-0.389,1.938-0.595,2.965-0.616c1.161-0.027,2.31,0.088,3.438,0.364
	c1.729,0.424,3.227,1.265,4.517,2.489c0.882,0.841,1.628,1.792,2.323,2.788c0.736,1.056,1.412,2.149,2.109,3.231
	c0.787,1.218,1.6,2.417,2.506,3.55c0.904,1.129,1.901,2.172,2.99,3.125c1.316,1.153,2.486,2.437,3.481,3.879
	c0.849,1.236,1.54,2.551,2.023,3.972c0.376,1.106,0.612,2.238,0.673,3.408c0.093,1.776-0.214,3.475-1.02,5.072
	c-0.746,1.481-1.826,2.67-3.183,3.614c-0.997,0.694-2.073,1.222-3.257,1.515c-0.42,0.105-0.846,0.181-1.275,0.223
	c-0.061,0.006-0.118,0.017-0.176,0.026c-0.057,0.031-0.119,0.008-0.178,0.015c-0.049,0.007-0.102-0.015-0.147,0.016
	c-0.368,0-0.736,0-1.104,0c-0.043-0.032-0.093-0.009-0.14-0.016c-0.043,0-0.083,0-0.126,0c-0.035,0-0.072,0-0.106,0
	c-0.941-0.03-1.855-0.227-2.767-0.438c-1.544-0.36-3.057-0.833-4.593-1.225c-1.243-0.315-2.497-0.571-3.774-0.718
	c-0.884-0.102-1.771-0.112-2.655-0.082c-0.707,0.023-1.409,0.133-2.105,0.262c-1.374,0.259-2.719,0.629-4.066,0.996
	c-1.424,0.391-2.849,0.779-4.308,1.019c-0.593,0.095-1.187,0.178-1.79,0.172c-0.124-0.001-0.247,0.017-0.372,0.014
	C36.785,64.99,36.628,65.019,36.471,64.982z"/>
<path fill="#8E2800" d="M63.684,3.902c1.985,0.238,3.502,1.247,4.66,2.838c0.794,1.091,1.293,2.315,1.604,3.623
	c0.264,1.126,0.363,2.271,0.326,3.427c-0.07,2.126-0.568,4.146-1.492,6.061c-0.639,1.327-1.465,2.524-2.516,3.557
	c-0.938,0.918-1.998,1.651-3.234,2.108c-0.869,0.321-1.762,0.479-2.688,0.424c-1.603-0.093-2.964-0.729-4.107-1.842
	c-0.975-0.95-1.64-2.098-2.099-3.369c-0.322-0.889-0.522-1.805-0.627-2.742c-0.072-0.643-0.102-1.285-0.081-1.928
	c0.048-1.518,0.32-2.996,0.813-4.43c0.523-1.528,1.266-2.936,2.279-4.195c0.853-1.059,1.849-1.955,3.045-2.616
	c0.878-0.486,1.813-0.801,2.814-0.915c0.031-0.017,0.064-0.01,0.096-0.012c0.031,0,0.063,0,0.095,0
	c0.046-0.006,0.095,0.017,0.136-0.016c0.219,0,0.434,0,0.65,0c0.042,0.033,0.09,0.011,0.135,0.016c0.033,0,0.063,0,0.096,0
	C63.619,3.893,63.652,3.884,63.684,3.902z"/>
<path fill="#8E2800" d="M18.023,27.343c0.031-0.606,0.14-1.201,0.299-1.786c0.308-1.137,0.812-2.173,1.599-3.061
	c0.878-0.99,1.964-1.631,3.265-1.89c1.056-0.208,2.098-0.119,3.123,0.196c1.178,0.364,2.219,0.982,3.145,1.788
	c1.438,1.247,2.47,2.781,3.184,4.536c0.374,0.919,0.632,1.871,0.775,2.853c0.07,0.476,0.103,0.955,0.113,1.437
	c0.017,0.914-0.075,1.813-0.302,2.698c-0.302,1.18-0.811,2.254-1.622,3.173c-0.931,1.055-2.092,1.711-3.483,1.937
	c-1.021,0.166-2.024,0.054-3.007-0.263c-1.321-0.429-2.453-1.165-3.45-2.119c-0.973-0.927-1.745-2.004-2.347-3.202
	c-0.59-1.175-0.998-2.413-1.194-3.716c-0.034-0.23-0.062-0.46-0.093-0.69c-0.024-0.105-0.015-0.212-0.04-0.317
	c-0.012-0.043-0.005-0.085-0.007-0.13c-0.008-0.056,0.017-0.115-0.017-0.17c0-0.281,0-0.562,0-0.844
	c0.053-0.077,0.027-0.163,0.033-0.245C18,27.465,17.984,27.4,18.023,27.343z"/>
<path fill="#8E2800" d="M31.961,13.798c0.006-1.676,0.245-3.188,0.806-4.643c0.423-1.1,1.004-2.106,1.812-2.972
	c0.871-0.935,1.906-1.605,3.154-1.921c1.248-0.317,2.475-0.227,3.681,0.209c1.062,0.385,1.989,0.993,2.812,1.759
	c1.314,1.222,2.255,2.698,2.925,4.352c0.426,1.052,0.719,2.139,0.887,3.26c0.095,0.636,0.15,1.276,0.163,1.922
	c0.014,0.812-0.037,1.621-0.171,2.422c-0.279,1.675-0.847,3.235-1.86,4.614c-0.63,0.855-1.396,1.563-2.334,2.073
	c-1.05,0.569-2.173,0.807-3.362,0.715c-1.075-0.083-2.066-0.434-2.99-0.982c-1.206-0.714-2.183-1.677-2.995-2.81
	c-0.964-1.346-1.626-2.834-2.045-4.434c-0.23-0.875-0.376-1.764-0.443-2.667C31.973,14.358,31.95,14.017,31.961,13.798z"/>
<path fill="#8E2800" d="M84.628,28.325c0,0.064,0,0.129,0,0.195c-0.073,1.616-0.507,3.138-1.205,4.589
	c-0.55,1.137-1.251,2.173-2.119,3.092c-1.114,1.181-2.407,2.102-3.944,2.654c-0.92,0.331-1.868,0.494-2.848,0.44
	c-1.447-0.082-2.711-0.606-3.772-1.593c-0.877-0.815-1.456-1.818-1.819-2.947c-0.328-1.012-0.461-2.055-0.428-3.117
	c0.071-2.335,0.811-4.458,2.09-6.401c0.432-0.658,0.927-1.265,1.482-1.821c1.143-1.139,2.449-2.014,3.997-2.51
	c0.88-0.28,1.779-0.408,2.7-0.336c1.408,0.109,2.635,0.642,3.665,1.613c0.929,0.876,1.515,1.958,1.868,3.173
	c0.196,0.671,0.311,1.357,0.333,2.058c0,0.065,0,0.131,0,0.196C84.621,27.848,84.621,28.086,84.628,28.325z"/>
</svg>
